<svg width="500" height="300" viewBox="0 0 500 300" fill="none" xmlns="http://www.w3.org/2000/svg">
<rect x="50.5" y="50.5" width="399" height="199" fill="#320C0C" stroke="#9C3530"/>
<path d="M185.802 104.812H180.166L179.181 108H174.787L181.045 90.9375H184.912L191.216 108H186.798L185.802 104.812ZM181.15 101.637H184.818L182.978 95.7188L181.15 101.637ZM206.859 94.1133H201.738V108H197.624V94.1133H192.597V90.9375H206.859V94.1133ZM224.587 94.1133H219.466V108H215.352V94.1133H210.325V90.9375H224.587V94.1133ZM239.315 100.77H232.846V104.836H240.487V108H228.733V90.9375H240.51V94.1133H232.846V97.7109H239.315V100.77ZM258.812 108H254.723L248.676 97.3828V108H244.562V90.9375H248.676L254.711 101.555V90.9375H258.812V108ZM276.857 94.1133H271.736V108H267.623V94.1133H262.595V90.9375H276.857V94.1133ZM285.386 108H281.284V90.9375H285.386V108ZM305.095 99.8203C305.095 101.484 304.786 102.957 304.169 104.238C303.552 105.52 302.673 106.508 301.532 107.203C300.399 107.891 299.106 108.234 297.653 108.234C296.2 108.234 294.911 107.902 293.786 107.238C292.661 106.566 291.782 105.609 291.149 104.367C290.524 103.125 290.196 101.699 290.165 100.09V99.1289C290.165 97.457 290.47 95.9844 291.079 94.7109C291.696 93.4297 292.575 92.4414 293.716 91.7461C294.864 91.0508 296.169 90.7031 297.63 90.7031C299.075 90.7031 300.364 91.0469 301.497 91.7344C302.63 92.4219 303.509 93.4023 304.134 94.6758C304.766 95.9414 305.087 97.3945 305.095 99.0352V99.8203ZM300.911 99.1055C300.911 97.4102 300.626 96.125 300.055 95.25C299.493 94.3672 298.684 93.9258 297.63 93.9258C295.567 93.9258 294.477 95.4727 294.36 98.5664L294.348 99.8203C294.348 101.492 294.626 102.777 295.18 103.676C295.735 104.574 296.559 105.023 297.653 105.023C298.692 105.023 299.493 104.582 300.055 103.699C300.618 102.816 300.903 101.547 300.911 99.8906V99.1055ZM323.866 108H319.776L313.729 97.3828V108H309.616V90.9375H313.729L319.764 101.555V90.9375H323.866V108Z" fill="#9C3530"/>
<path d="M205.793 158.154H201.438V170H198.508V158.154H194.211V155.781H205.793V158.154ZM218.027 163.838H212.402V167.646H219.004V170H209.473V155.781H218.984V158.154H212.402V161.543H218.027V163.838ZM227.986 164.795H225.652V170H222.723V155.781H228.006C229.686 155.781 230.981 156.156 231.893 156.904C232.804 157.653 233.26 158.711 233.26 160.078C233.26 161.048 233.048 161.859 232.625 162.51C232.208 163.154 231.574 163.669 230.721 164.053L233.797 169.863V170H230.652L227.986 164.795ZM225.652 162.422H228.016C228.751 162.422 229.321 162.236 229.725 161.865C230.128 161.488 230.33 160.97 230.33 160.312C230.33 159.642 230.138 159.115 229.754 158.73C229.376 158.346 228.794 158.154 228.006 158.154H225.652V162.422ZM241.324 155.781L244.977 166.094L248.609 155.781H252.457V170H249.518V166.113L249.811 159.404L245.973 170H243.961L240.133 159.414L240.426 166.113V170H237.496V155.781H241.324ZM260.131 170H257.201V155.781H260.131V170ZM276.418 170H273.488L267.785 160.645V170H264.855V155.781H267.785L273.498 165.156V155.781H276.418V170ZM289.18 167.07H284.043L283.066 170H279.951L285.244 155.781H287.959L293.281 170H290.166L289.18 167.07ZM284.834 164.697H288.389L286.602 159.375L284.834 164.697ZM299.539 167.646H305.76V170H296.609V155.781H299.539V167.646ZM166.783 193V178.781H171.158C172.408 178.781 173.525 179.064 174.508 179.631C175.497 180.191 176.269 180.992 176.822 182.033C177.376 183.068 177.652 184.247 177.652 185.568V186.223C177.652 187.544 177.379 188.719 176.832 189.748C176.292 190.777 175.527 191.574 174.537 192.141C173.548 192.707 172.431 192.993 171.188 193H166.783ZM169.713 181.154V190.646H171.129C172.275 190.646 173.15 190.272 173.756 189.523C174.361 188.775 174.671 187.704 174.684 186.311V185.559C174.684 184.113 174.384 183.02 173.785 182.277C173.186 181.529 172.311 181.154 171.158 181.154H169.713ZM184.906 193H181.977V178.781H184.906V193ZM197.004 189.27C197.004 188.716 196.809 188.293 196.418 188C196.027 187.701 195.324 187.388 194.309 187.062C193.293 186.73 192.489 186.405 191.896 186.086C190.282 185.214 189.475 184.038 189.475 182.561C189.475 181.792 189.689 181.109 190.119 180.51C190.555 179.904 191.177 179.432 191.984 179.094C192.798 178.755 193.71 178.586 194.719 178.586C195.734 178.586 196.639 178.771 197.434 179.143C198.228 179.507 198.843 180.025 199.279 180.695C199.722 181.366 199.943 182.128 199.943 182.98H197.014C197.014 182.329 196.809 181.825 196.398 181.467C195.988 181.102 195.412 180.92 194.67 180.92C193.954 180.92 193.397 181.073 193 181.379C192.603 181.678 192.404 182.076 192.404 182.57C192.404 183.033 192.635 183.42 193.098 183.732C193.566 184.045 194.253 184.338 195.158 184.611C196.825 185.113 198.039 185.734 198.801 186.477C199.562 187.219 199.943 188.143 199.943 189.25C199.943 190.48 199.478 191.447 198.547 192.15C197.616 192.847 196.363 193.195 194.787 193.195C193.693 193.195 192.697 192.997 191.799 192.6C190.9 192.196 190.214 191.646 189.738 190.949C189.27 190.253 189.035 189.445 189.035 188.527H191.975C191.975 190.096 192.912 190.881 194.787 190.881C195.484 190.881 196.027 190.741 196.418 190.461C196.809 190.174 197.004 189.777 197.004 189.27ZM215.098 188.264C214.987 189.794 214.421 190.998 213.398 191.877C212.383 192.756 211.042 193.195 209.375 193.195C207.552 193.195 206.117 192.583 205.068 191.359C204.027 190.129 203.506 188.443 203.506 186.301V185.432C203.506 184.064 203.747 182.86 204.229 181.818C204.71 180.777 205.397 179.979 206.289 179.426C207.188 178.866 208.229 178.586 209.414 178.586C211.055 178.586 212.376 179.025 213.379 179.904C214.382 180.783 214.961 182.017 215.117 183.605H212.188C212.116 182.688 211.859 182.023 211.416 181.613C210.98 181.197 210.312 180.988 209.414 180.988C208.438 180.988 207.705 181.34 207.217 182.043C206.735 182.74 206.488 183.824 206.475 185.295V186.369C206.475 187.906 206.706 189.029 207.168 189.738C207.637 190.448 208.372 190.803 209.375 190.803C210.28 190.803 210.954 190.598 211.396 190.188C211.846 189.771 212.103 189.13 212.168 188.264H215.098ZM230.701 186.213C230.701 187.613 230.454 188.84 229.959 189.895C229.464 190.949 228.755 191.763 227.83 192.336C226.912 192.909 225.857 193.195 224.666 193.195C223.488 193.195 222.436 192.912 221.512 192.346C220.587 191.779 219.871 190.972 219.363 189.924C218.855 188.869 218.598 187.658 218.592 186.291V185.588C218.592 184.188 218.842 182.958 219.344 181.896C219.852 180.829 220.564 180.012 221.482 179.445C222.407 178.872 223.462 178.586 224.646 178.586C225.831 178.586 226.883 178.872 227.801 179.445C228.725 180.012 229.438 180.829 229.939 181.896C230.447 182.958 230.701 184.185 230.701 185.578V186.213ZM227.732 185.568C227.732 184.077 227.465 182.945 226.932 182.17C226.398 181.395 225.636 181.008 224.646 181.008C223.663 181.008 222.905 181.392 222.371 182.16C221.837 182.922 221.567 184.042 221.561 185.52V186.213C221.561 187.665 221.827 188.791 222.361 189.592C222.895 190.393 223.663 190.793 224.666 190.793C225.649 190.793 226.404 190.409 226.932 189.641C227.459 188.866 227.726 187.74 227.732 186.262V185.568ZM246.393 193H243.463L237.76 183.645V193H234.83V178.781H237.76L243.473 188.156V178.781H246.393V193ZM262.514 193H259.584L253.881 183.645V193H250.951V178.781H253.881L259.594 188.156V178.781H262.514V193ZM275.627 186.838H270.002V190.646H276.604V193H267.072V178.781H276.584V181.154H270.002V184.543H275.627V186.838ZM291.484 188.264C291.374 189.794 290.807 190.998 289.785 191.877C288.77 192.756 287.428 193.195 285.762 193.195C283.939 193.195 282.503 192.583 281.455 191.359C280.413 190.129 279.893 188.443 279.893 186.301V185.432C279.893 184.064 280.133 182.86 280.615 181.818C281.097 180.777 281.784 179.979 282.676 179.426C283.574 178.866 284.616 178.586 285.801 178.586C287.441 178.586 288.763 179.025 289.766 179.904C290.768 180.783 291.348 182.017 291.504 183.605H288.574C288.503 182.688 288.245 182.023 287.803 181.613C287.367 181.197 286.699 180.988 285.801 180.988C284.824 180.988 284.092 181.34 283.604 182.043C283.122 182.74 282.874 183.824 282.861 185.295V186.369C282.861 187.906 283.092 189.029 283.555 189.738C284.023 190.448 284.759 190.803 285.762 190.803C286.667 190.803 287.34 190.598 287.783 190.188C288.232 189.771 288.49 189.13 288.555 188.264H291.484ZM305.818 181.154H301.463V193H298.533V181.154H294.236V178.781H305.818V181.154ZM318.053 186.838H312.428V190.646H319.029V193H309.498V178.781H319.01V181.154H312.428V184.543H318.053V186.838ZM322.748 193V178.781H327.123C328.373 178.781 329.49 179.064 330.473 179.631C331.462 180.191 332.234 180.992 332.787 182.033C333.34 183.068 333.617 184.247 333.617 185.568V186.223C333.617 187.544 333.344 188.719 332.797 189.748C332.257 190.777 331.492 191.574 330.502 192.141C329.512 192.707 328.396 192.993 327.152 193H322.748ZM325.678 181.154V190.646H327.094C328.24 190.646 329.115 190.272 329.721 189.523C330.326 188.775 330.635 187.704 330.648 186.311V185.559C330.648 184.113 330.349 183.02 329.75 182.277C329.151 181.529 328.275 181.154 327.123 181.154H325.678Z" fill="#9C3530"/>
</svg>
