<svg width="500" height="300" viewBox="0 0 500 300" fill="none" xmlns="http://www.w3.org/2000/svg">
<rect x="50.5" y="50.5" width="399" height="199" fill="#320C0C" stroke="#9C3530"/>
<path d="M185.802 104.812H180.166L179.181 108H174.787L181.045 90.9375H184.912L191.216 108H186.798L185.802 104.812ZM181.15 101.637H184.818L182.978 95.7188L181.15 101.637ZM206.859 94.1133H201.738V108H197.624V94.1133H192.597V90.9375H206.859V94.1133ZM224.587 94.1133H219.466V108H215.352V94.1133H210.325V90.9375H224.587V94.1133ZM239.315 100.77H232.846V104.836H240.487V108H228.733V90.9375H240.51V94.1133H232.846V97.7109H239.315V100.77ZM258.812 108H254.723L248.676 97.3828V108H244.562V90.9375H248.676L254.711 101.555V90.9375H258.812V108ZM276.857 94.1133H271.736V108H267.623V94.1133H262.595V90.9375H276.857V94.1133ZM285.386 108H281.284V90.9375H285.386V108ZM305.095 99.8203C305.095 101.484 304.786 102.957 304.169 104.238C303.552 105.52 302.673 106.508 301.532 107.203C300.399 107.891 299.106 108.234 297.653 108.234C296.2 108.234 294.911 107.902 293.786 107.238C292.661 106.566 291.782 105.609 291.149 104.367C290.524 103.125 290.196 101.699 290.165 100.09V99.1289C290.165 97.457 290.47 95.9844 291.079 94.7109C291.696 93.4297 292.575 92.4414 293.716 91.7461C294.864 91.0508 296.169 90.7031 297.63 90.7031C299.075 90.7031 300.364 91.0469 301.497 91.7344C302.63 92.4219 303.509 93.4023 304.134 94.6758C304.766 95.9414 305.087 97.3945 305.095 99.0352V99.8203ZM300.911 99.1055C300.911 97.4102 300.626 96.125 300.055 95.25C299.493 94.3672 298.684 93.9258 297.63 93.9258C295.567 93.9258 294.477 95.4727 294.36 98.5664L294.348 99.8203C294.348 101.492 294.626 102.777 295.18 103.676C295.735 104.574 296.559 105.023 297.653 105.023C298.692 105.023 299.493 104.582 300.055 103.699C300.618 102.816 300.903 101.547 300.911 99.8906V99.1055ZM323.866 108H319.776L313.729 97.3828V108H309.616V90.9375H313.729L319.764 101.555V90.9375H323.866V108Z" fill="#9C3530"/>
<path d="M172.941 164.795H170.607V170H167.678V155.781H172.961C174.641 155.781 175.936 156.156 176.848 156.904C177.759 157.653 178.215 158.711 178.215 160.078C178.215 161.048 178.003 161.859 177.58 162.51C177.163 163.154 176.529 163.669 175.676 164.053L178.752 169.863V170H175.607L172.941 164.795ZM170.607 162.422H172.971C173.706 162.422 174.276 162.236 174.68 161.865C175.083 161.488 175.285 160.97 175.285 160.312C175.285 159.642 175.093 159.115 174.709 158.73C174.331 158.346 173.749 158.154 172.961 158.154H170.607V162.422ZM191.006 163.838H185.381V167.646H191.982V170H182.451V155.781H191.963V158.154H185.381V161.543H191.006V163.838ZM203.074 166.27C203.074 165.716 202.879 165.293 202.488 165C202.098 164.701 201.395 164.388 200.379 164.062C199.363 163.73 198.559 163.405 197.967 163.086C196.352 162.214 195.545 161.038 195.545 159.561C195.545 158.792 195.76 158.109 196.189 157.51C196.626 156.904 197.247 156.432 198.055 156.094C198.868 155.755 199.78 155.586 200.789 155.586C201.805 155.586 202.71 155.771 203.504 156.143C204.298 156.507 204.913 157.025 205.35 157.695C205.792 158.366 206.014 159.128 206.014 159.98H203.084C203.084 159.329 202.879 158.825 202.469 158.467C202.059 158.102 201.482 157.92 200.74 157.92C200.024 157.92 199.467 158.073 199.07 158.379C198.673 158.678 198.475 159.076 198.475 159.57C198.475 160.033 198.706 160.42 199.168 160.732C199.637 161.045 200.324 161.338 201.229 161.611C202.895 162.113 204.109 162.734 204.871 163.477C205.633 164.219 206.014 165.143 206.014 166.25C206.014 167.48 205.548 168.447 204.617 169.15C203.686 169.847 202.433 170.195 200.857 170.195C199.764 170.195 198.768 169.997 197.869 169.6C196.971 169.196 196.284 168.646 195.809 167.949C195.34 167.253 195.105 166.445 195.105 165.527H198.045C198.045 167.096 198.982 167.881 200.857 167.881C201.554 167.881 202.098 167.741 202.488 167.461C202.879 167.174 203.074 166.777 203.074 166.27ZM221.686 163.213C221.686 164.613 221.438 165.84 220.943 166.895C220.449 167.949 219.739 168.763 218.814 169.336C217.896 169.909 216.842 170.195 215.65 170.195C214.472 170.195 213.421 169.912 212.496 169.346C211.572 168.779 210.855 167.972 210.348 166.924C209.84 165.869 209.583 164.658 209.576 163.291V162.588C209.576 161.188 209.827 159.958 210.328 158.896C210.836 157.829 211.549 157.012 212.467 156.445C213.391 155.872 214.446 155.586 215.631 155.586C216.816 155.586 217.867 155.872 218.785 156.445C219.71 157.012 220.423 157.829 220.924 158.896C221.432 159.958 221.686 161.185 221.686 162.578V163.213ZM218.717 162.568C218.717 161.077 218.45 159.945 217.916 159.17C217.382 158.395 216.62 158.008 215.631 158.008C214.648 158.008 213.889 158.392 213.355 159.16C212.822 159.922 212.551 161.042 212.545 162.52V163.213C212.545 164.665 212.812 165.791 213.346 166.592C213.88 167.393 214.648 167.793 215.65 167.793C216.633 167.793 217.389 167.409 217.916 166.641C218.443 165.866 218.71 164.74 218.717 163.262V162.568ZM228.744 167.646H234.965V170H225.814V155.781H228.744V167.646ZM249.182 155.781V165.146C249.182 166.702 248.693 167.933 247.717 168.838C246.747 169.743 245.419 170.195 243.732 170.195C242.072 170.195 240.754 169.756 239.777 168.877C238.801 167.998 238.303 166.79 238.283 165.254V155.781H241.213V165.166C241.213 166.097 241.434 166.777 241.877 167.207C242.326 167.63 242.945 167.842 243.732 167.842C245.38 167.842 246.216 166.976 246.242 165.244V155.781H249.182ZM264.287 158.154H259.932V170H257.002V158.154H252.705V155.781H264.287V158.154ZM271.082 170H268.152V155.781H271.082V170ZM287.486 163.213C287.486 164.613 287.239 165.84 286.744 166.895C286.249 167.949 285.54 168.763 284.615 169.336C283.697 169.909 282.643 170.195 281.451 170.195C280.273 170.195 279.221 169.912 278.297 169.346C277.372 168.779 276.656 167.972 276.148 166.924C275.641 165.869 275.383 164.658 275.377 163.291V162.588C275.377 161.188 275.628 159.958 276.129 158.896C276.637 157.829 277.35 157.012 278.268 156.445C279.192 155.872 280.247 155.586 281.432 155.586C282.617 155.586 283.668 155.872 284.586 156.445C285.51 157.012 286.223 157.829 286.725 158.896C287.232 159.958 287.486 161.185 287.486 162.578V163.213ZM284.518 162.568C284.518 161.077 284.251 159.945 283.717 159.17C283.183 158.395 282.421 158.008 281.432 158.008C280.449 158.008 279.69 158.392 279.156 159.16C278.622 159.922 278.352 161.042 278.346 162.52V163.213C278.346 164.665 278.613 165.791 279.146 166.592C279.68 167.393 280.449 167.793 281.451 167.793C282.434 167.793 283.189 167.409 283.717 166.641C284.244 165.866 284.511 164.74 284.518 163.262V162.568ZM303.178 170H300.248L294.545 160.645V170H291.615V155.781H294.545L300.258 165.156V155.781H303.178V170ZM317.832 170H314.902V155.781H317.832V170ZM329.93 166.27C329.93 165.716 329.734 165.293 329.344 165C328.953 164.701 328.25 164.388 327.234 164.062C326.219 163.73 325.415 163.405 324.822 163.086C323.208 162.214 322.4 161.038 322.4 159.561C322.4 158.792 322.615 158.109 323.045 157.51C323.481 156.904 324.103 156.432 324.91 156.094C325.724 155.755 326.635 155.586 327.645 155.586C328.66 155.586 329.565 155.771 330.359 156.143C331.154 156.507 331.769 157.025 332.205 157.695C332.648 158.366 332.869 159.128 332.869 159.98H329.939C329.939 159.329 329.734 158.825 329.324 158.467C328.914 158.102 328.338 157.92 327.596 157.92C326.88 157.92 326.323 158.073 325.926 158.379C325.529 158.678 325.33 159.076 325.33 159.57C325.33 160.033 325.561 160.42 326.023 160.732C326.492 161.045 327.179 161.338 328.084 161.611C329.751 162.113 330.965 162.734 331.727 163.477C332.488 164.219 332.869 165.143 332.869 166.25C332.869 167.48 332.404 168.447 331.473 169.15C330.542 169.847 329.288 170.195 327.713 170.195C326.619 170.195 325.623 169.997 324.725 169.6C323.826 169.196 323.139 168.646 322.664 167.949C322.195 167.253 321.961 166.445 321.961 165.527H324.9C324.9 167.096 325.838 167.881 327.713 167.881C328.41 167.881 328.953 167.741 329.344 167.461C329.734 167.174 329.93 166.777 329.93 166.27ZM171.887 193H168.957L163.254 183.645V193H160.324V178.781H163.254L168.967 188.156V178.781H171.887V193ZM188.125 186.213C188.125 187.613 187.878 188.84 187.383 189.895C186.888 190.949 186.178 191.763 185.254 192.336C184.336 192.909 183.281 193.195 182.09 193.195C180.911 193.195 179.86 192.912 178.936 192.346C178.011 191.779 177.295 190.972 176.787 189.924C176.279 188.869 176.022 187.658 176.016 186.291V185.588C176.016 184.188 176.266 182.958 176.768 181.896C177.275 180.829 177.988 180.012 178.906 179.445C179.831 178.872 180.885 178.586 182.07 178.586C183.255 178.586 184.307 178.872 185.225 179.445C186.149 180.012 186.862 180.829 187.363 181.896C187.871 182.958 188.125 184.185 188.125 185.578V186.213ZM185.156 185.568C185.156 184.077 184.889 182.945 184.355 182.17C183.822 181.395 183.06 181.008 182.07 181.008C181.087 181.008 180.329 181.392 179.795 182.16C179.261 182.922 178.991 184.042 178.984 185.52V186.213C178.984 187.665 179.251 188.791 179.785 189.592C180.319 190.393 181.087 190.793 182.09 190.793C183.073 190.793 183.828 190.409 184.355 189.641C184.883 188.866 185.15 187.74 185.156 186.262V185.568ZM202.117 181.154H197.762V193H194.832V181.154H190.535V178.781H202.117V181.154ZM219.564 189.27C219.564 188.716 219.369 188.293 218.979 188C218.588 187.701 217.885 187.388 216.869 187.062C215.854 186.73 215.049 186.405 214.457 186.086C212.842 185.214 212.035 184.038 212.035 182.561C212.035 181.792 212.25 181.109 212.68 180.51C213.116 179.904 213.738 179.432 214.545 179.094C215.359 178.755 216.27 178.586 217.279 178.586C218.295 178.586 219.2 178.771 219.994 179.143C220.788 179.507 221.404 180.025 221.84 180.695C222.283 181.366 222.504 182.128 222.504 182.98H219.574C219.574 182.329 219.369 181.825 218.959 181.467C218.549 181.102 217.973 180.92 217.23 180.92C216.514 180.92 215.958 181.073 215.561 181.379C215.163 181.678 214.965 182.076 214.965 182.57C214.965 183.033 215.196 183.42 215.658 183.732C216.127 184.045 216.814 184.338 217.719 184.611C219.385 185.113 220.6 185.734 221.361 186.477C222.123 187.219 222.504 188.143 222.504 189.25C222.504 190.48 222.038 191.447 221.107 192.15C220.176 192.847 218.923 193.195 217.348 193.195C216.254 193.195 215.258 192.997 214.359 192.6C213.461 192.196 212.774 191.646 212.299 190.949C211.83 190.253 211.596 189.445 211.596 188.527H214.535C214.535 190.096 215.473 190.881 217.348 190.881C218.044 190.881 218.588 190.741 218.979 190.461C219.369 190.174 219.564 189.777 219.564 189.27ZM237.258 178.781V188.146C237.258 189.702 236.77 190.933 235.793 191.838C234.823 192.743 233.495 193.195 231.809 193.195C230.148 193.195 228.83 192.756 227.854 191.877C226.877 190.998 226.379 189.79 226.359 188.254V178.781H229.289V188.166C229.289 189.097 229.51 189.777 229.953 190.207C230.402 190.63 231.021 190.842 231.809 190.842C233.456 190.842 234.292 189.976 234.318 188.244V178.781H237.258ZM244.59 187.99V193H241.66V178.781H247.207C248.275 178.781 249.212 178.977 250.02 179.367C250.833 179.758 251.458 180.314 251.895 181.037C252.331 181.753 252.549 182.57 252.549 183.488C252.549 184.882 252.07 185.982 251.113 186.789C250.163 187.59 248.844 187.99 247.158 187.99H244.59ZM244.59 185.617H247.207C247.982 185.617 248.571 185.435 248.975 185.07C249.385 184.706 249.59 184.185 249.59 183.508C249.59 182.811 249.385 182.248 248.975 181.818C248.564 181.389 247.998 181.167 247.275 181.154H244.59V185.617ZM259.5 187.99V193H256.57V178.781H262.117C263.185 178.781 264.122 178.977 264.93 179.367C265.743 179.758 266.368 180.314 266.805 181.037C267.241 181.753 267.459 182.57 267.459 183.488C267.459 184.882 266.98 185.982 266.023 186.789C265.073 187.59 263.755 187.99 262.068 187.99H259.5ZM259.5 185.617H262.117C262.892 185.617 263.481 185.435 263.885 185.07C264.295 184.706 264.5 184.185 264.5 183.508C264.5 182.811 264.295 182.248 263.885 181.818C263.475 181.389 262.908 181.167 262.186 181.154H259.5V185.617ZM283.16 186.213C283.16 187.613 282.913 188.84 282.418 189.895C281.923 190.949 281.214 191.763 280.289 192.336C279.371 192.909 278.316 193.195 277.125 193.195C275.947 193.195 274.895 192.912 273.971 192.346C273.046 191.779 272.33 190.972 271.822 189.924C271.314 188.869 271.057 187.658 271.051 186.291V185.588C271.051 184.188 271.301 182.958 271.803 181.896C272.311 180.829 273.023 180.012 273.941 179.445C274.866 178.872 275.921 178.586 277.105 178.586C278.29 178.586 279.342 178.872 280.26 179.445C281.184 180.012 281.897 180.829 282.398 181.896C282.906 182.958 283.16 184.185 283.16 185.578V186.213ZM280.191 185.568C280.191 184.077 279.924 182.945 279.391 182.17C278.857 181.395 278.095 181.008 277.105 181.008C276.122 181.008 275.364 181.392 274.83 182.16C274.296 182.922 274.026 184.042 274.02 185.52V186.213C274.02 187.665 274.286 188.791 274.82 189.592C275.354 190.393 276.122 190.793 277.125 190.793C278.108 190.793 278.863 190.409 279.391 189.641C279.918 188.866 280.185 187.74 280.191 186.262V185.568ZM292.553 187.795H290.219V193H287.289V178.781H292.572C294.252 178.781 295.548 179.156 296.459 179.904C297.37 180.653 297.826 181.711 297.826 183.078C297.826 184.048 297.615 184.859 297.191 185.51C296.775 186.154 296.14 186.669 295.287 187.053L298.363 192.863V193H295.219L292.553 187.795ZM290.219 185.422H292.582C293.318 185.422 293.887 185.236 294.291 184.865C294.695 184.488 294.896 183.97 294.896 183.312C294.896 182.642 294.704 182.115 294.32 181.73C293.943 181.346 293.36 181.154 292.572 181.154H290.219V185.422ZM312.277 181.154H307.922V193H304.992V181.154H300.695V178.781H312.277V181.154ZM324.512 186.838H318.887V190.646H325.488V193H315.957V178.781H325.469V181.154H318.887V184.543H324.512V186.838ZM329.207 193V178.781H333.582C334.832 178.781 335.949 179.064 336.932 179.631C337.921 180.191 338.693 180.992 339.246 182.033C339.799 183.068 340.076 184.247 340.076 185.568V186.223C340.076 187.544 339.803 188.719 339.256 189.748C338.715 190.777 337.951 191.574 336.961 192.141C335.971 192.707 334.855 192.993 333.611 193H329.207ZM332.137 181.154V190.646H333.553C334.699 190.646 335.574 190.272 336.18 189.523C336.785 188.775 337.094 187.704 337.107 186.311V185.559C337.107 184.113 336.808 183.02 336.209 182.277C335.61 181.529 334.734 181.154 333.582 181.154H332.137Z" fill="#9C3530"/>
</svg>
